<?xml version="1.0" encoding="utf-8"?>

<!DOCTYPE svg PUBLIC "-//W3C//DTD SVG 1.1//EN" "http://www.w3.org/Graphics/SVG/1.1/DTD/svg11.dtd">
<svg version="1.1" id="Layer_1" xmlns="http://www.w3.org/2000/svg" xmlns:xlink="http://www.w3.org/1999/xlink" x="0px" y="0px"
	 viewBox="0 0 2612.198 457.271" enable-background="" xml:space="preserve">
<g>
	<path d="M1306.103,267.133c-177.024-0.091-355.597-0.191-535.435-0.304c68.262-43.193,6.463-148.527-17.272-127.233
		c-2.023,8.568,29.8,61.444-50.04,103.208c-57.261,29.617-112.083-8.77-155.641-56.225
		c-95.767-110.34-255.776-43.715-260.151-43.264c-2.132-2.275-3.696-5.024-5.427-7.724c20.339-7.307,50.087-28.498,123.348-27.082
		c87.303-2.333,150.619,68.108,169.266,84.181c129.162,108.335,179.468-5.947,164.004-57.267
		c-8.528-31.074-52.471-77.29-70.938-53.712c-6.658,10.876-0.141,25.448,9.999,31.725c9.715,6.966,22.485,3.009,33.051,6.991
		c31.078,26.642,11.567,99.396-53.499,72.526c14.785-50.373-22.243-69.376-63.971-42.457c-0.74-42.256-26.721-65.033-80.32-37.72
		c-1.453-32.106-27.38-50.032-70.962-21.016c-1.018-6.35-1.161-13.671-6.207-18.433c-7.865-8.057-20.139-10.378-30.945-8.341
		c-9.286,1.658-16.135,8.766-22.864,14.88c-5.638-12.889-21.206-15.567-33.55-11.918c-47.419,13.397-74.309,43.382-78.684,46.913
		c-3.198,0.592-5-3.672-7.462-5.449C154.728-22.242,35.513,60.275,26.608,132.206c-4.895,42.717,26.157,89.296,65.984,90.342
		c49.962,3.44,89.455-44.656,66.506-80.747c-11.656-20.494-39.733-29.498-60.868-18.386c-21.117,7.638-36.94,54.998,21.371,62.218
		c-15.223,23.152-61.878,9.316-66.057-35.563C48.809,88,174.199,17.977,230.77,188.286c6.142,20.432-11.233,12.879-31.205,45.893
		c-81.253,127.737,90.592,258.896,107.094,131.048c387.08,0.996,247.659-3.119,297.065,9.074
		c6.729-9.596,12.937-19.807,14.239-31.725c7.966,6.249,32.295,56.437,76.127,45.658c2.867-8.103,4.429-17.415,10.519-23.741
		c1.012-0.234,229.499-0.417,601.49-0.55c371.991,0.133,600.478,0.316,601.489,0.55c6.09,6.326,7.654,15.638,10.519,23.741
		c43.832,10.781,68.161-39.409,76.127-45.658c1.302,11.918,7.511,22.128,14.239,31.725c49.406-12.194-90.017-8.079,297.065-9.074
		c16.502,127.848,188.347-3.309,107.094-131.048c-19.972-33.016-37.345-25.462-31.205-45.893
		C2437.999,17.979,2563.389,88,2558.653,150.069c-4.179,44.88-50.834,58.716-66.057,35.563c58.311-7.22,42.488-54.581,21.371-62.218
		c-21.135-11.112-49.212-2.11-60.868,18.386c-22.948,36.092,16.547,84.187,66.506,80.747c39.828-1.046,70.879-47.624,65.985-90.342
		c-8.905-71.929-128.12-154.448-235.794-22.794c-2.465,1.777-4.264,6.042-7.462,5.449c-4.377-3.53-31.265-33.516-78.686-46.913
		c-12.345-3.65-27.91-0.971-33.55,11.918c-6.729-6.114-13.578-13.222-22.864-14.88c-10.805-2.037-23.078,0.284-30.945,8.341
		c-5.046,4.762-5.189,12.083-6.207,18.433c-43.58-29.016-69.509-11.092-70.962,21.016c-53.599-27.313-79.581-4.536-80.32,37.72
		c-41.73-26.919-78.757-7.914-63.971,42.457c-65.063,26.87-84.576-45.881-53.498-72.526c10.568-3.98,23.338-0.024,33.051-6.991
		c10.14-6.279,16.657-20.851,9.999-31.725c-18.467-23.577-62.41,22.638-70.938,53.712c-15.464,51.318,34.844,165.6,164.004,57.267
		c18.646-16.073,81.961-86.515,169.264-84.181c73.261-1.417,103.007,19.775,123.348,27.082c-1.729,2.7-3.295,5.449-5.427,7.724
		c-4.377-0.451-164.385-67.077-260.151,43.264c-43.558,47.455-98.38,85.842-155.641,56.225
		c-79.841-41.764-48.017-94.64-50.041-103.208c-23.734-21.294-85.533,84.04-17.272,127.233
		C1661.702,266.941,1483.127,267.042,1306.103,267.133z M450.763,234.961c-26.352-3.744-24.551-83.21-150.996-68.024
		c-2.299-4.572-4.312-9.336-5.26-14.429C413.287,132.792,451.999,218.771,450.763,234.961z M2317.7,152.508
		c-0.949,5.094-2.962,9.856-5.26,14.429c-126.448-15.186-124.644,64.278-150.996,68.024
		C2160.207,218.771,2198.918,132.792,2317.7,152.508z M161.447,65.981c72.729,14.152,109.643,100.162,101.596,119.106
		C248.933,160.561,260.536,119.351,161.447,65.981z M2349.163,185.088c-8.047-18.943,28.867-104.954,101.596-119.106
		C2351.669,119.351,2363.273,160.561,2349.163,185.088z M287.019,334.33c-18.417,0.322-45.055-5.798-53.617,34.876
		c-45.16-48.241-21.834-144.272,54.045-160.379c49.837-9.06,44.191,21.685,67.905,37.365c10.235,8.411,24.498,9.145,34.59,17.604
		c8.885,5.522,7.394,22.415,20.234,21.063c5.497-9.737,5.568-20.992,5.473-31.819c1.233,0.333,3.696,1.02,4.929,1.35
		c7.94,33.087,54.629,66.13,80.058,67.099c-0.617-9.429-10.259-14.501-12.226-23.457c-5.685-21.893,0.26-45.041-7.061-66.72
		c11.658-1.515,23.291,1.28,34.83-0.189c8.538-34.262-51.834-69.045-54.423-80.036c25.854,8.879,62.518,46.024,71.98,93.967
		c5.522,29.379,5.33,59.707,13.671,88.564C529.582,334.76,301.811,334.354,287.019,334.33z M2064.797,333.621
		c8.341-28.859,8.149-59.185,13.671-88.564c9.461-47.943,46.125-85.088,71.979-93.967c-2.59,10.989-62.962,45.772-54.423,80.036
		c11.539,1.469,23.172-1.326,34.83,0.189c-7.321,21.679-1.374,44.827-7.061,66.72c-1.967,8.955-11.609,14.028-12.226,23.457
		c25.431-0.969,72.118-34.012,80.058-67.099c1.231-0.333,3.696-1.02,4.929-1.35c-0.095,10.828-0.024,22.082,5.473,31.82
		c12.84,1.35,11.349-15.543,20.234-21.063c10.092-8.458,24.357-9.193,34.59-17.604c23.714-15.68,18.07-46.425,67.905-37.365
		c75.879,16.109,99.202,112.138,54.042,160.379c-8.563-40.674-35.201-34.554-53.617-34.876
		C2310.395,334.354,2082.623,334.76,2064.797,333.621z M626.711,309.002c-35.35-10.14-66.911-39.449-71.885-77.05
		c10.711,13.576,21.062,27.839,35.304,38.004c22.185,18.312,72.165,23.87,90.13,75.202
		C664.05,331.013,648.223,314.737,626.711,309.002z M1931.949,345.158c17.965-51.332,67.945-56.892,90.13-75.202
		c14.239-10.164,24.593-24.428,35.304-38.004c-4.975,37.601-36.535,66.909-71.885,77.05
		C1963.982,314.737,1948.155,331.013,1931.949,345.158z M1306.103,331.948c-368.144-0.34-593.733-0.806-598.457-1.431
		c-2.394-6.966-5.213-13.814-8.458-20.494c29.907-15.958,180.045-11.599,452.636-11.799c51.83,0,103.257-0.002,154.281-0.004
		c51.024,0.002,102.451,0.004,154.281,0.004c272.589,0.199,422.729-4.159,452.636,11.799c-3.246,6.68-6.066,13.528-8.458,20.494
		C1899.836,331.142,1674.246,331.608,1306.103,331.948z"/>
</g>
</svg>
